<?xml version="1.0" encoding="UTF-8" standalone="no"?>
<!-- Created with Inkscape (http://www.inkscape.org/) -->

<svg
   width="210mm"
   height="297mm"
   viewBox="0 0 210 297"
   version="1.1"
   id="svg5"
   inkscape:version="1.1.2 (b8e25be833, 2022-02-05)"
   sodipodi:docname="Canvas.svg"
   xmlns:inkscape="http://www.inkscape.org/namespaces/inkscape"
   xmlns:sodipodi="http://sodipodi.sourceforge.net/DTD/sodipodi-0.dtd"
   xmlns="http://www.w3.org/2000/svg"
   xmlns:svg="http://www.w3.org/2000/svg">
  <sodipodi:namedview
     id="namedview7"
     pagecolor="#ffffff"
     bordercolor="#666666"
     borderopacity="1.0"
     inkscape:pageshadow="2"
     inkscape:pageopacity="0.0"
     inkscape:pagecheckerboard="0"
     inkscape:document-units="mm"
     showgrid="false"
     inkscape:zoom="1.4142136"
     inkscape:cx="254.55844"
     inkscape:cy="203.2932"
     inkscape:window-width="2400"
     inkscape:window-height="1271"
     inkscape:window-x="2391"
     inkscape:window-y="-9"
     inkscape:window-maximized="1"
     inkscape:current-layer="layer2"
     showborder="false"
     inkscape:snap-global="true" />
  <defs
     id="defs2">
    <inkscape:path-effect
       effect="spiro"
       id="path-effect5726"
       is_visible="true"
       lpeversion="1" />
    <inkscape:path-effect
       effect="simplify"
       id="path-effect5724"
       is_visible="true"
       lpeversion="1"
       steps="1"
       threshold="0.00108696"
       smooth_angles="360"
       helper_size="0"
       simplify_individual_paths="false"
       simplify_just_coalesce="false" />
    <inkscape:path-effect
       effect="bspline"
       id="path-effect5687"
       is_visible="true"
       lpeversion="1"
       weight="33.333333"
       steps="2"
       helper_size="0"
       apply_no_weight="true"
       apply_with_weight="true"
       only_selected="false" />
    <inkscape:path-effect
       effect="simplify"
       id="path-effect5238"
       is_visible="true"
       lpeversion="1"
       steps="1"
       threshold="0.00108696"
       smooth_angles="360"
       helper_size="0"
       simplify_individual_paths="false"
       simplify_just_coalesce="false" />
    <inkscape:path-effect
       effect="simplify"
       id="path-effect1920"
       is_visible="true"
       lpeversion="1"
       steps="1"
       threshold="0.00108696"
       smooth_angles="360"
       helper_size="0"
       simplify_individual_paths="false"
       simplify_just_coalesce="false" />
    <inkscape:path-effect
       effect="bspline"
       id="path-effect1516"
       is_visible="true"
       lpeversion="1"
       weight="33.333333"
       steps="2"
       helper_size="0"
       apply_no_weight="true"
       apply_with_weight="true"
       only_selected="false" />
    <inkscape:path-effect
       effect="powerstroke"
       id="path-effect1134"
       is_visible="true"
       lpeversion="1"
       offset_points="1.0596841,5.606124"
       not_jump="true"
       sort_points="true"
       interpolator_type="CentripetalCatmullRom"
       interpolator_beta="0.75"
       start_linecap_type="round"
       linejoin_type="spiro"
       miter_limit="4"
       scale_width="1"
       end_linecap_type="round" />
    <inkscape:path-effect
       effect="powerstroke"
       id="path-effect858"
       is_visible="true"
       lpeversion="1"
       offset_points="1.3660283,5.606124"
       not_jump="true"
       sort_points="true"
       interpolator_type="CentripetalCatmullRom"
       interpolator_beta="0.75"
       start_linecap_type="round"
       linejoin_type="spiro"
       miter_limit="4"
       scale_width="1"
       end_linecap_type="round" />
  </defs>
  <g
     inkscape:label="Layer 1"
     inkscape:groupmode="layer"
     id="layer1"
     style="display:inline"
     sodipodi:insensitive="true">
    <rect
       style="fill:none;stroke:#000000;stroke-width:0.5;stroke-miterlimit:4;stroke-dasharray:none;stroke-opacity:1"
       id="rect2578"
       width="200"
       height="200"
       x="0.25"
       y="0.25" />
    <g
       id="g4117"
       transform="matrix(0.36964201,0,0,-0.36964201,3.6407701,195.27482)">
      <g
         id="g4062">
        <g
           id="g4060">
          <path
             d="m 459.04,85.675 c -21.7,-6.332 -32.939,15.462 -40.67,30.447 L 393.675,174.08 409.334,69.658 C 411.578,56.03 408.959,43.981 401.953,35.729 396.406,29.192 388.564,25.6 379.852,25.6 c -16.7,0 -31.249,14.549 -37.146,37.41 L 324.12,149.82 V 42.906 C 324.478,29.85 320.485,18.347 312.865,10.522 306.174,3.635 297.155,0 286.787,0 c -29.065,0 -36.173,28.45 -39.211,40.593 -0.145,0.563 -0.222,1.126 -0.247,1.698 L 242.926,143.556 230.202,50.27 C 226.217,13.952 204.798,8.533 192.382,8.533 c -22.554,0 -38.929,17.946 -38.903,43.298 l 17.067,230.4 c 0.35,4.693 4.284,8.243 9.139,7.876 4.702,-0.35 8.226,-4.437 7.876,-9.139 L 170.52,51.2 c 0,-12.74 6.758,-25.6 21.862,-25.6 4.446,0 17.946,0 20.881,26.752 l 25.6,187.733 c 0.597,4.378 4.565,7.603 8.849,7.373 4.412,-0.205 7.936,-3.746 8.132,-8.158 l 8.491,-195.388 c 5.726,-22.332 12.851,-26.846 22.451,-26.846 5.734,0 10.394,1.801 13.85,5.35 4.378,4.497 6.647,11.605 6.417,20.25 V 230.4 c 0,4.369 3.294,8.021 7.629,8.491 4.395,0.384 8.329,-2.441 9.242,-6.707 L 359.32,66.935 c 3.115,-12.083 10.675,-24.269 20.531,-24.269 3.669,0 6.81,1.417 9.088,4.104 3.652,4.309 4.958,11.639 3.541,20.233 l -25.6,170.667 c -0.64,4.25 1.98,8.303 6.11,9.472 4.156,1.169 8.508,-0.913 10.18,-4.864 l 50.62,-118.895 c 10.402,-20.07 15.061,-22.886 20.471,-21.325 3.849,1.118 8.627,2.517 5.914,15.915 -0.247,1.109 -25.062,111.386 -33.348,162.261 -2.603,16.009 -4.395,35.49 -6.46,58.044 -4.343,47.275 -9.702,105.685 -25.66,156.655 H 203.049 C 183.405,408.482 115.71,300.023 74.187,258.5 c -7.424,-7.424 -20.326,-21.615 -23.04,-24.593 0.077,-0.154 0.205,-0.384 0.444,-0.7 l 3.695,-3.593 c 9.967,-9.958 43.315,-9.95 53.282,0 l 32.666,32.666 c 3.337,3.328 8.738,3.328 12.066,0 3.337,-3.336 3.337,-8.738 0,-12.066 l -32.666,-32.666 c -16.64,-16.64 -60.774,-16.64 -77.329,-0.094 l -4.002,3.891 c -0.222,0.213 -0.427,0.444 -0.623,0.683 -5.717,6.912 -6.212,15.13 -1.306,21.999 0.188,0.265 0.393,0.521 0.614,0.759 0.631,0.7 15.539,17.195 24.132,25.779 40.977,40.986 108.407,149.598 125.517,233.839 0.461,4.267 4.087,7.595 8.482,7.595 h 204.8 c 3.678,0 6.929,-2.347 8.09,-5.837 18.057,-54.17 23.765,-116.352 28.348,-166.323 2.048,-22.238 3.814,-41.446 6.323,-56.858 8.183,-50.372 32.896,-160.154 33.186,-161.434 4.856,-23.943 -7.014,-32.715 -17.826,-35.872 z"
             id="path4058" />
        </g>
      </g>
      <g
         id="g4064" />
      <g
         id="g4066" />
      <g
         id="g4068" />
      <g
         id="g4070" />
      <g
         id="g4072" />
      <g
         id="g4074" />
      <g
         id="g4076" />
      <g
         id="g4078" />
      <g
         id="g4080" />
      <g
         id="g4082" />
      <g
         id="g4084" />
      <g
         id="g4086" />
      <g
         id="g4088" />
      <g
         id="g4090" />
      <g
         id="g4092" />
    </g>
    <rect
       style="fill:#a70000;fill-opacity:0.629032;stroke:none;stroke-width:0.0944216;stroke-miterlimit:4;stroke-dasharray:none;stroke-opacity:1"
       id="rect7870"
       width="18.352184"
       height="46.918354"
       x="95.561081"
       y="103.94375"
       transform="matrix(1,0,0.02745948,0.99962292,0,0)" />
    <rect
       style="fill:#a70000;fill-opacity:0.629032;stroke:none;stroke-width:0.0860001;stroke-miterlimit:4;stroke-dasharray:none;stroke-opacity:1"
       id="rect7870-8"
       width="15.669386"
       height="45.586479"
       x="106.70376"
       y="105.52496"
       transform="matrix(1,0,0.1586475,0.98733529,0,0)" />
    <rect
       style="fill:#a70000;fill-opacity:0.629032;stroke:none;stroke-width:0.0738808;stroke-miterlimit:4;stroke-dasharray:none;stroke-opacity:1"
       id="rect7870-1"
       width="16.34417"
       height="32.254395"
       x="110.56112"
       y="109.83723"
       transform="matrix(1,0,0.32069144,0.94718372,0,0)" />
    <rect
       style="fill:#a70000;fill-opacity:0.629032;stroke:none;stroke-width:0.091124;stroke-miterlimit:4;stroke-dasharray:none;stroke-opacity:1"
       id="rect7870-5"
       width="19.819807"
       height="40.462639"
       x="85.768478"
       y="105.02684"
       transform="matrix(1,0,-0.1269577,0.99190813,0,0)" />
    <rect
       style="fill:#a70000;fill-opacity:0.629032;stroke:none;stroke-width:0.0820146;stroke-miterlimit:4;stroke-dasharray:none;stroke-opacity:1"
       id="rect7870-9"
       width="19.012089"
       height="34.169651"
       x="90.345573"
       y="45.998821"
       transform="matrix(0.92730164,0.37431494,-0.62656645,0.779368,0,0)" />
    <rect
       style="fill:#a79600;fill-opacity:0.629032;stroke:none;stroke-width:0.1;stroke-miterlimit:4;stroke-dasharray:none;stroke-opacity:1"
       id="rect8563"
       width="89.542915"
       height="27.251816"
       x="72.586227"
       y="76.784218" />
    <rect
       style="fill:#279600;fill-opacity:0.629032;stroke:none;stroke-width:0.104616;stroke-miterlimit:4;stroke-dasharray:none;stroke-opacity:1"
       id="rect9569"
       width="16.424921"
       height="39.740353"
       x="88.515221"
       y="145.51469"
       transform="matrix(1,0,-0.12829321,0.99173628,0,0)" />
    <rect
       style="fill:#279600;fill-opacity:0.629032;stroke:none;stroke-width:0.1;stroke-miterlimit:4;stroke-dasharray:none;stroke-opacity:1"
       id="rect9727"
       width="18.323082"
       height="36.787113"
       x="100.00175"
       y="151.09496" />
    <rect
       style="fill:#279600;fill-opacity:0.629032;stroke:none;stroke-width:0.110644;stroke-miterlimit:4;stroke-dasharray:none;stroke-opacity:1"
       id="rect9924"
       width="13.641635"
       height="31.901272"
       x="105.74648"
       y="150.9946"
       transform="matrix(1,0,0.17104817,0.98526267,0,0)" />
    <rect
       style="fill:#279600;fill-opacity:0.629032;stroke:none;stroke-width:0.113009;stroke-miterlimit:4;stroke-dasharray:none;stroke-opacity:1"
       id="rect10028"
       width="13.200837"
       height="23.906115"
       x="110.60036"
       y="142.02167"
       transform="matrix(1,0,0.32333826,0.94628345,0,0)" />
    <rect
       style="fill:#279600;fill-opacity:0.629032;stroke:none;stroke-width:0.104598;stroke-miterlimit:4;stroke-dasharray:none;stroke-opacity:1"
       id="rect10256"
       width="20.87921"
       height="15.503392"
       x="50.174011"
       y="78.617249"
       transform="matrix(0.93138114,0.36404557,-0.22934414,0.9733454,0,0)" />
  </g>
  <g
     inkscape:groupmode="layer"
     id="layer2"
     inkscape:label="Layer 2">
    <path
       style="fill:none;stroke:#000000;stroke-width:0.264583px;stroke-linecap:butt;stroke-linejoin:miter;stroke-opacity:1"
       d="m 90.487499,31.220833 c -0.776565,3.325807 -4.571079,5.285989 -5.820833,8.202083 -0.556948,1.299546 0.0127,2.846925 -0.264584,4.233333 -0.273478,1.367396 -1.149953,2.585043 -1.322916,3.96875 -0.655487,5.243894 0.476959,10.684209 -0.264584,15.875 -1.264629,8.852398 -3.831658,16.904536 -5.291666,25.664583 -0.82872,4.972325 0.60951,10.392632 -0.264584,15.345838 -0.313145,1.77449 -0.820324,1.63179 -1.5875,2.91041 -1.015304,1.69218 -3.288683,14.64614 -1.5875,17.19792 0.185278,0.27791 1.251233,-2.11841 1.322917,-2.38125 0.687213,-2.51978 1.040252,-5.11909 1.5875,-7.67292 0.633825,-2.95785 1.295487,-6.29514 2.645833,-8.99583 0.881904,-1.76381 1.542569,5.11695 2.38125,3.43958 0.812419,-1.62484 2.246964,-8.59696 2.645834,-8.99583 1.081952,-1.081954 1.051261,2.25249 1.852083,1.85208 2.087369,-1.04368 3.514405,-11.149907 5.027083,-11.906248 2.227646,-1.113822 3.19201,7.886467 5.027083,2.38125 0.414608,-1.243822 0.925386,-2.45478 1.322917,-3.704166 0.318304,-1.000387 0.592505,-2.507925 1.058333,-3.439584 0.419704,-0.839404 5.935235,9.863503 7.408335,7.408334 9.23629,-15.393824 6.51944,-34.99929 14.55208,-51.064583"
       id="path1779" />
  </g>
</svg>
